<?xml version="1.0" encoding="UTF-8" standalone="no"?>
<!-- Created with Inkscape (http://www.inkscape.org/) -->

<svg
   width="895.70697"
   height="562.53766"
   viewBox="0 0 271.36139 170.42516"
   version="1.1"
   id="svg5"
   xml:space="preserve"
   inkscape:version="1.2.1 (9c6d41e410, 2022-07-14)"
   sodipodi:docname="openherbarium_logo.svg"
   xmlns:inkscape="http://www.inkscape.org/namespaces/inkscape"
   xmlns:sodipodi="http://sodipodi.sourceforge.net/DTD/sodipodi-0.dtd"
   xmlns="http://www.w3.org/2000/svg"
   xmlns:svg="http://www.w3.org/2000/svg"><sodipodi:namedview
     id="namedview7"
     pagecolor="#ffffff"
     bordercolor="#000000"
     borderopacity="0.25"
     inkscape:showpageshadow="false"
     inkscape:pageopacity="0.0"
     inkscape:pagecheckerboard="true"
     inkscape:deskcolor="#d1d1d1"
     inkscape:document-units="mm"
     showgrid="false"
     inkscape:zoom="1.4560754"
     inkscape:cx="586.5081"
     inkscape:cy="251.01722"
     inkscape:window-width="1920"
     inkscape:window-height="1028"
     inkscape:window-x="2553"
     inkscape:window-y="236"
     inkscape:window-maximized="1"
     inkscape:current-layer="layer1"
     showguides="false"
     showborder="false"
     borderlayer="false"
     shape-rendering="crispEdges" /><defs
     id="defs2" /><g
     inkscape:label="Layer 1"
     inkscape:groupmode="layer"
     id="layer1"
     transform="translate(2.722919,-93.30214)"><path
       style="display:inline;fill:#00733a;fill-opacity:1;stroke-width:1.56882"
       d="m 94.918167,175.94646 c -2.15722,-1.73235 -6.259036,-5.45125 -6.259036,-5.45125 0,0 -1.626741,-13.10109 -1.440189,-17.73805 0.193946,-4.82075 -0.04202,-21.09936 12.202868,-34.77023 9.49329,-10.59884 34.81972,-21.948029 60.53462,-5.89289 10.37116,6.47525 21.13171,26.37374 7.70263,14.14793 -2.74763,-2.50144 -5.2385,-4.53428 -10.47363,-6.5793 -9.91541,-3.87329 -22.03245,-3.83056 -31.93516,0.0751 -8.62937,3.40345 -16.42261,10.55947 -20.38118,18.9487 -5.333406,11.30285 -6.437428,25.65198 -2.2471,37.42657 0.91854,2.58103 1.52949,5.01639 5.59063,9.66299 -7.164,-6.00443 -8.997299,-6.37875 -13.294453,-9.82957 z"
       id="path25553"
       sodipodi:nodetypes="acsssssaasca"
       inkscape:label="arcleaf" /><path
       style="display:inline;fill:#00954e;fill-opacity:1;stroke-width:1.56882"
       d="m 129.52161,237.87765 c -0.39684,-2.77398 -0.26126,-6.04348 -5.93566,-11.63828 -6.18812,-6.10132 -20.19106,-17.00864 -32.208318,-26.22869 -20.259669,-15.54392 -28.717731,-36.9213 -29.562923,-40.43137 -3.816369,-15.8493 2.539748,-31.02707 6.576559,-15.13486 1.711605,6.73829 4.996869,12.25373 8.839488,15.53385 4.312908,3.68156 6.813592,5.24449 9.960255,8.16489 3.897996,3.61771 15.539569,11.15325 28.839769,24.83217 6.47994,6.12868 14.75465,21.19389 15.76043,26.56671 l 2.12893,11.37272 c 1.83524,4.59629 2.36642,8.1502 2.68859,10.61068 -1.35395,1.81589 -5.51503,11.61998 -7.08712,-3.64782 z"
       id="leftleaf"
       sodipodi:nodetypes="csssssscsccc"
       sodipodi:insensitive="true" /><path
       style="display:inline;fill:#017540;fill-opacity:1;stroke-width:1.56882"
       d="m 181.91216,172.33056 c -2.45516,13.48322 -4.64133,11.51712 -1.61122,10.64282 2.17992,-0.62899 4.41262,-2.18883 4.92349,-10.38045 0.2819,-4.52017 -0.1248,-14.33565 -1.33606,-13.95868 -3.25702,1.01367 -1.13835,9.09495 -1.97621,13.69631 z"
       id="path24351"
       sodipodi:nodetypes="sssss"
       inkscape:label="stem"
       sodipodi:insensitive="true" /><path
       style="display:inline;fill:#2ea656;fill-opacity:1;stroke-width:1.56882"
       d="m 138.68657,222.03192 c 13.33588,-26.39148 34.30482,-34.1854 53.93642,-49.85957 8.70039,-7.49155 11.63389,-11.79212 12.45633,-15.74944 0.73208,-3.52256 1.85049,-4.72407 3.07894,-4.5592 0.95387,0.12802 1.54913,2.31186 2.24748,4.88705 0.63319,2.33488 0.71197,3.60996 0.68379,5.94838 -0.274,22.73775 -10.08786,32.2773 -42.87834,52.50276 -11.53184,5.80612 -18.53533,11.76146 -26.30996,18.79608 -2.35188,2.12803 -3.57422,5.89349 -5.16975,7.89046 -1.00356,1.25606 -2.89801,4.26777 -3.69572,4.39573 -2.27433,0.36483 -2.55071,-2.73724 -2.24481,-5.88955 0.36924,-3.80507 4.87188,-12.77616 7.89562,-18.3627 z"
       id="path15549"
       sodipodi:nodetypes="ccsssscssssc"
       inkscape:label="rightleaf"
       sodipodi:insensitive="true" /><path
       style="display:inline;fill:#8e2587;fill-opacity:1;stroke-width:1.56882"
       d="m 163.12195,132.88172 c -0.0671,1.64578 0.62741,3.41935 0.7965,5.61678 0.14995,1.94866 -0.22631,4.71229 -0.2299,6.35632 2.04301,0.024 3.85463,-0.72912 7.27458,-0.47577 -0.46492,-5.08176 2.98594,-8.19668 4.2096,-10.39157 -0.87947,-0.68004 -3.15053,-1.75883 -5.8332,-1.82295 -2.14842,-0.0513 -4.65573,0.88019 -6.21758,0.71722 z m 17.06471,34.63762 c -4.02517,2.46293 -10.18772,1.05944 -14.06202,-1.63459 -6.88102,-4.78479 -10.3649,-13.25179 -11.41636,-22.40203 1.03751,-3.51446 3.67149,1.96209 8.15274,2.23113 2.52512,0.1516 8.83978,-0.94685 12.54432,1.02213 4.0263,2.14 7.82601,6.17693 8.54836,10.67903 0.56945,3.54917 -0.70092,8.22822 -3.76704,10.10433 z m -0.52916,-36.90937 c -0.84497,0.5334 -1.97309,2.18894 -4.64078,5.24097 -1.98718,2.27348 -3.25693,5.72557 -3.2593,8.45193 1.80163,0.31032 3.75659,0.94259 5.40901,1.90322 1.58242,0.91993 2.90024,2.25927 4.14688,3.59949 1.3763,1.4796 3.04063,4.83458 3.63267,4.85331 0.86402,-5.25175 0.90881,-6.33874 0.17144,-9.37658 -0.57375,-2.36373 -2.48634,-5.05154 -3.46332,-6.42283 -2.21697,-3.77897 0.31989,-6.92803 -1.9966,-8.24951 z m -28.31043,34.925 c -0.35828,1.69032 -2.24723,5.90281 -1.95489,9.15465 1.37345,0.51984 3.76909,-0.92462 5.65589,-1.37762 1.4671,-0.35224 2.92075,-0.76982 4.40475,-1.04222 2.17945,-0.40005 4.2037,-0.73565 6.59087,-0.86656 -4.87322,-2.74785 -10.64349,-5.67668 -14.69662,-5.86826 z m 4.46767,-9.33194 c -1.23936,-0.45288 -2.29651,0.92096 -3.53443,2.4481 -2.36526,2.91786 -2.27353,3.29895 -3.61249,5.19665 6.00427,-0.41408 13.7671,4.06459 15.78184,5.44007 2.64814,1.80791 5.20867,2.51366 8.83982,1.25011 -0.79509,-1.0243 -2.87479,-0.84495 -4.20463,-1.5169 -2.51425,-1.27042 -4.96791,-2.77332 -7.02461,-4.69826 -2.49304,-2.33333 -4.83207,-7.60328 -6.2455,-8.11977 z"
       id="path17559"
       sodipodi:nodetypes="cscccsccaacsaaacscaacaccccaacccscscaacs"
       inkscape:label="flower"
       sodipodi:insensitive="true" /><path
       style="display:inline;fill:#1e887e;fill-opacity:1;stroke-width:1.56882"
       d="m 128.0237,248.58358 c -7.4891,-5.82471 -32.680457,-4.91412 -49.441848,-4.6278 -17.463733,0.29831 -37.020985,0.2985 -51.549409,-9.39665 -10.044054,-6.70262 -14.980274,-20.49156 -11.41371,-22.66527 2.313878,-1.41024 5.142009,3.82375 6.526167,4.8471 4.980266,3.68207 14.485775,4.81487 22.011665,5.09211 9.831564,0.36218 28.727028,0.2646 39.059173,0.94848 12.65948,0.83792 25.222082,4.7099 38.611442,14.56658 5.28272,3.88892 9.19749,7.21364 9.66963,6.74151 12.6763,-7.90647 -0.0626,-0.28534 12.42327,-8.10516 6.79069,-4.20396 8.45828,-4.91736 14.95908,-7.70077 10.81425,-4.63029 24.7529,-6.93492 47.45544,-7.5428 26.36311,-0.70589 29.79478,0.52402 36.5071,-3.40941 3.75095,-2.19806 4.89578,-6.85664 7.62906,-5.37237 1.75883,0.95511 0.81985,3.01725 -0.22633,6.00002 -1.7029,4.85518 -5.62105,10.95667 -8.99217,13.7155 -11.42163,9.34712 -17.99809,13.05696 -56.11347,12.06536 -39.13524,-1.01815 -40.69142,-0.036 -49.31447,5.76881 -1.96946,1.32578 -1.18948,3.43922 -4.58717,3.42487 -1.1232,-0.005 -1.32301,-2.87981 -2.02279,-3.42407 z"
       id="path179"
       sodipodi:nodetypes="ssssssssccsssasssssss"
       inkscape:label="baseleaves" /></g></svg>
